<?xml version="1.0" encoding="utf-8"?>
<!-- Svg Vector Icons : http://www.onlinewebfonts.com/icon -->
<!DOCTYPE svg PUBLIC "-//W3C//DTD SVG 1.1//EN" "http://www.w3.org/Graphics/SVG/1.1/DTD/svg11.dtd">
<svg version="1.1" xmlns="http://www.w3.org/2000/svg" xmlns:xlink="http://www.w3.org/1999/xlink" x="0px" y="0px" viewBox="0 0 1000 1000" enable-background="new 0 0 1000 1000" xml:space="preserve">
<metadata> Svg Vector Icons : http://www.onlinewebfonts.com/icon </metadata>
<g><path d="M499.5,709.4c5.7-9.2,11-17.4,16-25.8c42-69.9,83.9-139.9,125.8-209.8c4.4-7.3,8.2-8.6,16.3-4.8c31.9,15.1,62.8,32.2,91.8,52.5c38.6,27.1,72.8,58.8,100.6,97c28.9,39.9,50.7,83.2,61.2,131.6c12.3,56.9,4.9,111.8-18.6,164.8c-9.7,21.8-21.8,42.3-35.2,62c-5.6,8.3-14.2,11.9-23,11.9c-220.3,0.6-440.7,0.9-661.1,1.2c-2.2,0-4.3,0-6.5-0.1c-12.2-0.2-21.1-6.1-27.7-16c-22.3-33.3-39.4-69-48.7-108.2c-6.5-27.6-8.8-55.6-6.4-83.8c2.6-30.7,9.9-60.4,22.5-88.6c33.1-74.6,86.3-132.1,153-177.8c26.6-18.2,55-33.1,84.2-46.6c0.6-0.3,1.2-0.5,1.8-0.8c7.2-2.8,7.5-2.7,11.4,3.8c46.4,77.2,92.7,154.4,139.1,231.5C496.9,705.2,498,706.8,499.5,709.4z"/><path d="M289.9,214.4C294.3,95.5,391.1,5.1,509.8,10.2c114.6,5,203.6,101.2,199.2,219.6c-4.2,113.4-103.1,204.8-222.6,198.6C376.8,422.6,286.9,327,289.9,214.4z"/></g>
</svg>